<svg width="228" height="46" viewBox="0 0 228 46" fill="none" xmlns="http://www.w3.org/2000/svg">
<g clip-path="url(#clip0_29_355)">
<path d="M1.22453e-05 28.5192V11.503C-0.00440066 11.3591 0.0209009 11.2159 0.0743228 11.082C0.127745 10.9481 0.208179 10.8265 0.310707 10.7245C0.410921 10.6243 0.530672 10.5452 0.662689 10.4923C0.794707 10.4393 0.936226 10.4136 1.07861 10.4166H5.02948C5.17377 10.4124 5.31742 10.4375 5.45152 10.4904C5.58562 10.5434 5.70733 10.6231 5.80912 10.7245C5.90871 10.8281 5.98644 10.9502 6.03777 11.0839C6.08911 11.2176 6.11298 11.36 6.10804 11.503V17.7657H13.834V11.503C13.8291 11.359 13.8541 11.2156 13.9074 11.0816C13.9608 10.9476 14.0413 10.8259 14.1441 10.724C14.2469 10.6221 14.3697 10.5423 14.5049 10.4894C14.6401 10.4365 14.7849 10.4118 14.9301 10.4166H18.8634C19.0069 10.4118 19.1499 10.4366 19.2831 10.4897C19.4163 10.5427 19.5369 10.6227 19.6372 10.7245C19.7376 10.8278 19.8162 10.9498 19.8685 11.0834C19.9209 11.2171 19.9458 11.3597 19.942 11.503V28.5192C19.9479 28.6608 19.9239 28.8021 19.8717 28.9341C19.8195 29.0661 19.7401 29.1859 19.6387 29.2859C19.5373 29.3859 19.416 29.4639 19.2825 29.5149C19.149 29.5659 19.0063 29.5889 18.8634 29.5823H14.9301C14.7854 29.5874 14.6411 29.5633 14.506 29.5114C14.371 29.4594 14.248 29.3808 14.1446 29.2802C14.0435 29.1809 13.9637 29.0622 13.9103 28.9314C13.8569 28.8005 13.8309 28.6603 13.834 28.5192V21.995H6.10804V28.5192C6.11295 28.6614 6.08787 28.803 6.03437 28.9351C5.98088 29.0671 5.90016 29.1867 5.79738 29.286C5.69579 29.3837 5.57552 29.4602 5.44365 29.5111C5.31177 29.562 5.17095 29.5862 5.02948 29.5823H1.07861C0.935192 29.5877 0.792151 29.5643 0.658146 29.5134C0.52414 29.4624 0.401947 29.3851 0.298972 29.286C0.19917 29.185 0.12118 29.065 0.069779 28.9331C0.0183782 28.8013 -0.00535979 28.6604 1.22453e-05 28.5192Z" fill="black"/>
<path d="M28.0371 31.4004L30.3467 31.7025C32.0075 31.7025 33.1662 30.4961 33.8227 28.0832C31.9838 28.1414 30.1923 27.4989 28.8167 26.288C27.4763 25.0913 26.3235 22.9611 25.3582 19.8975L22.7204 11.4679C22.6834 11.3634 22.6655 11.2532 22.6676 11.1425C22.6903 10.9749 22.7687 10.8195 22.8904 10.701C22.9724 10.6076 23.0745 10.5336 23.1891 10.4844C23.3037 10.4351 23.428 10.4119 23.5528 10.4163H27.2399C27.5951 10.4222 27.9387 10.5425 28.2188 10.7591C28.5038 10.9695 28.7101 11.2679 28.805 11.6073L31.1146 19.0203C31.4677 20.3751 32.0634 21.656 32.8731 22.8023C33.1219 23.1237 33.4411 23.3849 33.8067 23.566C34.1723 23.7472 34.5747 23.8436 34.9834 23.848L38.5005 11.6073C38.5922 11.2739 38.787 10.9773 39.0574 10.7591C39.3146 10.5385 39.6433 10.4168 39.9835 10.4163H43.7058C43.8296 10.4067 43.9538 10.4277 44.0673 10.4774C44.1809 10.5271 44.2802 10.6039 44.3565 10.701C44.4762 10.8272 44.5522 10.988 44.5734 11.16C44.5756 11.2637 44.5637 11.3672 44.5382 11.4679L39.9132 27.7985C39.0886 30.6916 38.0687 32.756 36.8533 33.9915C36.2434 34.605 35.5118 35.0864 34.7046 35.4054C33.8975 35.7244 33.0323 35.874 32.1638 35.8447C30.8063 35.8779 29.4483 35.808 28.1016 35.6356C27.5664 35.5954 27.0511 35.4171 26.6068 35.1185C26.5117 35.0262 26.4363 34.9159 26.385 34.7941C26.3336 34.6724 26.3074 34.5417 26.3079 34.4098V32.4868C26.3029 32.3439 26.3268 32.2014 26.3782 32.0677C26.4295 31.934 26.5072 31.8119 26.6068 31.7083C26.7084 31.6066 26.8301 31.5267 26.9642 31.4737C27.0984 31.4208 27.2421 31.3958 27.3865 31.4004H28.0371Z" fill="black"/>
<path d="M47.1116 34.4212V11.5025C47.1072 11.3586 47.1325 11.2154 47.186 11.0815C47.2394 10.9477 47.3198 10.826 47.4223 10.7241C47.5221 10.6232 47.6418 10.5438 47.7739 10.4909C47.906 10.4379 48.0478 10.4124 48.1902 10.4161H51.596C51.7395 10.4137 51.8821 10.4402 52.0149 10.4943C52.1477 10.5483 52.268 10.6286 52.3684 10.7303C52.4689 10.832 52.5473 10.953 52.5989 11.0857C52.6505 11.2185 52.6743 11.3603 52.6687 11.5025V12.0254C54.5563 10.716 56.813 10.0308 59.1167 10.0676C60.2684 10.0412 61.4127 10.2574 62.4737 10.7021C63.5348 11.1468 64.4885 11.8097 65.2717 12.647C66.9208 14.3667 67.7453 16.826 67.7453 20.0251C67.7453 23.2242 66.8915 25.6759 65.1837 27.38C63.476 29.0803 61.1762 29.9324 58.2843 29.9362C56.5488 29.8925 54.8297 29.5909 53.1845 29.0416V34.4212C53.1897 34.5647 53.1654 34.7077 53.1129 34.8415C53.0605 34.9754 52.9812 35.0972 52.8797 35.1997C52.7795 35.3 52.6597 35.379 52.5277 35.4319C52.3957 35.4849 52.2542 35.5106 52.1118 35.5076H48.1609C48.0185 35.5113 47.8767 35.4858 47.7446 35.4329C47.6125 35.3799 47.4928 35.3005 47.393 35.1997C47.2958 35.0953 47.2207 34.9726 47.1724 34.8388C47.124 34.7051 47.1034 34.563 47.1116 34.4212ZM53.2021 25.0039C54.437 25.4298 55.7291 25.6706 57.0357 25.7185C58.6497 25.7185 59.7928 25.2634 60.4649 24.3532C61.1371 23.4431 61.4751 21.9926 61.479 20.0019C61.479 18.0092 61.1625 16.5568 60.5177 15.6564C60.1937 15.2067 59.7594 14.8464 59.2558 14.6096C58.7521 14.3727 58.1958 14.2671 57.6395 14.3027C56.3675 14.3027 54.8845 14.8256 53.2021 15.8771V25.0039Z" fill="black"/>
<path d="M111.428 28.5192V11.503C111.423 11.3595 111.447 11.2165 111.499 11.0827C111.552 10.9488 111.631 10.827 111.733 10.7245C111.833 10.6243 111.952 10.5452 112.085 10.4923C112.217 10.4393 112.358 10.4136 112.5 10.4166H116.188C116.333 10.4118 116.478 10.4365 116.613 10.4894C116.748 10.5423 116.871 10.6221 116.974 10.724C117.076 10.8259 117.157 10.9476 117.21 11.0816C117.264 11.2156 117.289 11.359 117.284 11.503V22.9943L123.491 11.6773C123.694 11.3055 123.994 10.9945 124.359 10.7768C124.694 10.5533 125.086 10.4284 125.49 10.4166H130.426C130.571 10.4118 130.716 10.4365 130.851 10.4894C130.986 10.5423 131.109 10.6221 131.212 10.724C131.315 10.8259 131.395 10.9476 131.449 11.0816C131.502 11.2156 131.527 11.359 131.522 11.503V28.5192C131.527 28.6614 131.502 28.803 131.448 28.9351C131.395 29.0671 131.314 29.1867 131.211 29.286C131.107 29.3853 130.984 29.4627 130.849 29.5136C130.714 29.5645 130.57 29.5879 130.426 29.5823H126.739C126.596 29.5879 126.453 29.564 126.32 29.512C126.187 29.4599 126.066 29.381 125.965 29.2802C125.867 29.1796 125.789 29.0603 125.738 28.9296C125.687 28.7989 125.662 28.6594 125.666 28.5192V17.0453L119.441 28.3275C119.232 28.6879 118.936 28.9913 118.579 29.2105C118.246 29.4405 117.853 29.5697 117.448 29.5823H112.489C112.346 29.5889 112.204 29.566 112.07 29.5149C111.937 29.4638 111.816 29.3857 111.715 29.2857C111.614 29.1856 111.536 29.0657 111.484 28.9337C111.432 28.8017 111.409 28.6606 111.416 28.5192H111.428Z" fill="black"/>
<path d="M135.854 28.5193V11.5031C135.85 11.3592 135.875 11.216 135.928 11.0821C135.982 10.9482 136.062 10.8266 136.165 10.7246C136.265 10.6244 136.385 10.5453 136.517 10.4924C136.649 10.4395 136.79 10.4137 136.933 10.4167H140.884C141.028 10.4114 141.172 10.436 141.306 10.4891C141.44 10.5421 141.562 10.6223 141.663 10.7246C141.763 10.8282 141.84 10.9503 141.892 11.084C141.943 11.2177 141.967 11.3602 141.962 11.5031V17.7658H149.688V11.5031C149.683 11.3591 149.708 11.2157 149.762 11.0817C149.815 10.9477 149.895 10.826 149.998 10.7241C150.101 10.6223 150.224 10.5424 150.359 10.4895C150.494 10.4366 150.639 10.4119 150.784 10.4167H154.718C154.862 10.4125 155.005 10.4376 155.139 10.4906C155.274 10.5435 155.395 10.6232 155.497 10.7246C155.597 10.8282 155.674 10.9503 155.726 11.084C155.777 11.2177 155.801 11.3602 155.796 11.5031V28.5193C155.801 28.6605 155.778 28.8014 155.726 28.9332C155.675 29.0651 155.597 29.1851 155.497 29.2861C155.394 29.3847 155.271 29.4617 155.138 29.5126C155.004 29.5635 154.861 29.5872 154.718 29.5824H150.784C150.639 29.5875 150.495 29.5634 150.36 29.5115C150.225 29.4596 150.102 29.3809 149.999 29.2803C149.898 29.181 149.818 29.0623 149.764 28.9315C149.711 28.8006 149.685 28.6604 149.688 28.5193V21.9951H141.95V28.5193C141.955 28.6615 141.93 28.8031 141.877 28.9352C141.823 29.0672 141.743 29.1868 141.64 29.2861C141.539 29.3843 141.418 29.4612 141.286 29.5121C141.154 29.5631 141.013 29.5869 140.872 29.5824H136.921C136.778 29.5877 136.636 29.5642 136.503 29.5133C136.37 29.4623 136.249 29.385 136.147 29.2861C136.048 29.1853 135.97 29.0651 135.92 28.9331C135.869 28.8011 135.847 28.6602 135.854 28.5193Z" fill="black"/>
<path d="M161.365 28.3278C160.614 27.8316 160.004 27.1528 159.594 26.3564C159.183 25.56 158.986 24.6725 159.02 23.7789C158.983 22.8897 159.18 22.0063 159.591 21.215C160.002 20.4238 160.613 19.7518 161.365 19.2648C163.168 18.1528 165.269 17.6061 167.391 17.6963H173.253C173.253 16.3291 172.963 15.3783 172.385 14.8438C171.799 14.3093 170.802 14.0363 169.36 14.0363C167.918 14.0363 166.91 14.3906 166.324 15.0994C166.074 15.4282 165.751 15.6948 165.38 15.8784C165.009 16.0619 164.599 16.1572 164.184 16.1568H161.552C161.407 16.1611 161.263 16.1361 161.128 16.0831C160.992 16.0302 160.87 15.9505 160.767 15.8489C160.666 15.7495 160.586 15.6308 160.532 15.5C160.479 15.3692 160.453 15.2289 160.456 15.0878C160.456 11.7415 163.663 10.0684 170.075 10.0684C172.877 10.0684 175.124 10.69 176.817 11.9332C178.509 13.1764 179.355 15.0975 179.355 17.6963V28.5195C179.361 28.6609 179.338 28.8021 179.287 28.934C179.235 29.066 179.156 29.1859 179.055 29.286C178.954 29.386 178.833 29.4641 178.7 29.5152C178.567 29.5663 178.425 29.5892 178.282 29.5826H174.876C174.732 29.589 174.588 29.5655 174.454 29.5135C174.32 29.4614 174.198 29.3821 174.097 29.2805C173.998 29.1799 173.921 29.0606 173.87 28.9299C173.818 28.7992 173.794 28.6597 173.798 28.5195V27.9734C171.918 29.3005 169.657 29.9912 167.35 29.9428C165.235 30.0238 163.146 29.4601 161.365 28.3278ZM165.867 22.2568C165.639 22.4465 165.455 22.6835 165.329 22.951C165.204 23.2184 165.138 23.5099 165.138 23.805C165.138 24.1001 165.204 24.3916 165.329 24.6591C165.455 24.9266 165.639 25.1635 165.867 25.3533C166.472 25.7954 167.215 26.0115 167.965 25.9633C169.828 25.9491 171.648 25.4024 173.206 24.3889V21.641H167.789C167.095 21.6139 166.414 21.8321 165.867 22.2568Z" fill="black"/>
<path d="M183.681 28.5193V11.5031C183.676 11.3596 183.7 11.2166 183.752 11.0828C183.805 10.9489 183.884 10.8271 183.986 10.7246C184.086 10.6244 184.205 10.5453 184.338 10.4924C184.47 10.4395 184.611 10.4137 184.753 10.4167H188.71C188.854 10.4119 188.997 10.4368 189.13 10.4898C189.263 10.5428 189.384 10.6228 189.484 10.7246C189.584 10.8282 189.661 10.9503 189.713 11.084C189.764 11.2177 189.788 11.3602 189.783 11.5031V17.7658H197.515V11.5031C197.509 11.3594 197.533 11.2161 197.586 11.0821C197.639 10.9481 197.719 10.8264 197.821 10.7244C197.923 10.6224 198.046 10.5425 198.181 10.4896C198.316 10.4366 198.46 10.4118 198.605 10.4167H202.538C202.683 10.4114 202.827 10.436 202.961 10.4891C203.095 10.5421 203.217 10.6223 203.318 10.7246C203.417 10.8282 203.495 10.9503 203.547 11.084C203.598 11.2177 203.622 11.3602 203.617 11.5031V28.5193C203.624 28.6612 203.6 28.8029 203.548 28.9353C203.496 29.0677 203.417 29.1878 203.316 29.288C203.214 29.3882 203.092 29.4661 202.958 29.5169C202.825 29.5676 202.681 29.5899 202.538 29.5824H198.605C198.46 29.5875 198.316 29.5634 198.181 29.5115C198.046 29.4596 197.923 29.3809 197.819 29.2803C197.719 29.1807 197.64 29.0618 197.588 28.931C197.535 28.8001 197.511 28.66 197.515 28.5193V21.9951H189.783V28.5193C189.789 28.6616 189.764 28.8036 189.711 28.9358C189.657 29.068 189.576 29.1874 189.472 29.2861C189.372 29.3836 189.252 29.4601 189.122 29.511C188.991 29.5619 188.851 29.5862 188.71 29.5824H184.753C184.611 29.589 184.468 29.5661 184.335 29.515C184.202 29.4639 184.081 29.3858 183.98 29.2858C183.879 29.1857 183.8 29.0658 183.749 28.9338C183.697 28.8019 183.674 28.6607 183.681 28.5193Z" fill="black"/>
<path d="M217.334 29.937C214.031 29.937 211.464 29.0966 209.631 27.4157C207.798 25.7348 206.882 23.2657 206.882 20.0085C206.882 16.7513 207.792 14.2803 209.614 12.5955C211.435 10.9107 213.975 10.0684 217.234 10.0684C220.485 10.0684 222.986 10.5815 224.737 11.6079C225.556 12.0507 226.234 12.7108 226.696 13.5143C227.158 14.3177 227.385 15.2327 227.351 16.1568C227.357 16.2985 227.333 16.44 227.28 16.572C227.228 16.704 227.148 16.8238 227.047 16.9236C226.942 17.0223 226.819 17.0994 226.684 17.1502C226.549 17.2011 226.405 17.2248 226.261 17.2199H223.629C223.208 17.2026 222.799 17.076 222.443 16.8527C222.087 16.6294 221.797 16.3173 221.601 15.9476C220.909 14.8477 219.684 14.2996 217.926 14.3035C216.167 14.3035 214.936 14.745 214.239 15.6397C213.541 16.5344 213.183 17.9635 213.183 20.0027C213.183 22.0418 213.547 23.4884 214.274 24.3715C215.001 25.2545 216.255 25.7193 218.049 25.7193C219.842 25.7193 221.085 25.1732 221.777 24.0752C221.971 23.7088 222.258 23.3989 222.609 23.1758C222.961 22.9527 223.365 22.8241 223.782 22.8029H226.414C226.559 22.7985 226.703 22.8235 226.838 22.8765C226.973 22.9294 227.096 23.0092 227.199 23.1108C227.3 23.2101 227.38 23.3288 227.433 23.4596C227.487 23.5905 227.513 23.7307 227.51 23.8719C227.543 24.7966 227.316 25.7123 226.853 26.5159C226.39 27.3195 225.71 27.9792 224.89 28.4207C223.143 29.4277 220.624 29.9331 217.334 29.937Z" fill="black"/>
<path d="M82.3647 23.7145V6.02441C82.3647 6.02441 76.8839 7.86025 76.5498 8.00549C75.2937 8.54929 74.2237 9.44239 73.4694 10.5766C72.7151 11.7109 72.3089 13.0376 72.2999 14.396V28.6991C72.3106 30.0564 72.7168 31.3816 73.4698 32.5154C74.2227 33.6492 75.2903 34.5431 76.5439 35.0896C76.878 35.2348 82.3647 37.0706 82.3647 37.0706V30.1573H79.7034L82.3647 23.7145Z" fill="#60AAFB"/>
<path d="M94.5632 12.0839V0C94.5632 0 89.0765 1.84161 88.7482 1.98104C87.4931 2.52604 86.4239 3.41949 85.6698 4.55346C84.9157 5.68743 84.5088 7.01346 84.4984 8.37154V23.7959L87.1186 30.1864H84.4984C84.4984 38.4999 84.4984 46.0232 84.4984 46.0232C84.4984 46.0232 89.9851 44.1816 90.3192 44.0364C91.5739 43.4908 92.6427 42.5972 93.3967 41.4634C94.1507 40.3295 94.5578 39.0038 94.569 37.6459V18.6196H91.8902L94.5632 12.0839Z" fill="#355DFB"/>
<path d="M106.674 14.4018C106.665 13.0434 106.259 11.7167 105.504 10.5825C104.75 9.44825 103.68 8.55511 102.424 8.01131C102.09 7.86608 96.609 6.03027 96.609 6.03027V12.1361L99.282 18.6254H96.609V37.0881C96.609 37.0881 102.096 35.2523 102.43 35.1071C103.683 34.5606 104.751 33.6667 105.504 32.5329C106.257 31.3991 106.663 30.0738 106.674 28.7166V14.4018Z" fill="#0000DE"/>
</g>
<defs>
<clipPath id="clip0_29_355">
<rect width="227.504" height="46" fill="white"/>
</clipPath>
</defs>
</svg>
